<?xml version="1.0" encoding="UTF-8" standalone="no"?>
<svg
   xmlns:dc="http://purl.org/dc/elements/1.1/"
   xmlns:cc="http://creativecommons.org/ns#"
   xmlns:rdf="http://www.w3.org/1999/02/22-rdf-syntax-ns#"
   xmlns:svg="http://www.w3.org/2000/svg"
   xmlns="http://www.w3.org/2000/svg"
   xmlns:sodipodi="http://sodipodi.sourceforge.net/DTD/sodipodi-0.dtd"
   xmlns:inkscape="http://www.inkscape.org/namespaces/inkscape"
   width="210mm"
   height="297mm"
   viewBox="0 0 210 297"
   version="1.1"
   id="svg8"
   inkscape:version="1.0.2 (1.0.2+r75+1)"
   sodipodi:docname="drawing.svg">
  <defs
     id="defs2">
    <inkscape:path-effect
       effect="spiro"
       id="path-effect16"
       is_visible="true"
       lpeversion="1" />
    <inkscape:path-effect
       effect="spiro"
       id="path-effect12"
       is_visible="true"
       lpeversion="1" />
  </defs>
  <sodipodi:namedview
     id="base"
     pagecolor="#ffffff"
     bordercolor="#666666"
     borderopacity="1.0"
     inkscape:pageopacity="0.0"
     inkscape:pageshadow="2"
     inkscape:zoom="0.35"
     inkscape:cx="400"
     inkscape:cy="560"
     inkscape:document-units="mm"
     inkscape:current-layer="layer1"
     inkscape:document-rotation="0"
     showgrid="false"
     inkscape:window-width="1294"
     inkscape:window-height="704"
     inkscape:window-x="72"
     inkscape:window-y="27"
     inkscape:window-maximized="1" />
  <metadata
     id="metadata5">
    <rdf:RDF>
      <cc:Work
         rdf:about="">
        <dc:format>image/svg+xml</dc:format>
        <dc:type
           rdf:resource="http://purl.org/dc/dcmitype/StillImage" />
        <dc:title></dc:title>
      </cc:Work>
    </rdf:RDF>
  </metadata>
  <g
     inkscape:label="Layer 1"
     inkscape:groupmode="layer"
     id="layer1">
    <path
       style="fill:none;stroke:#000000;stroke-width:0.264583px;stroke-linecap:butt;stroke-linejoin:miter;stroke-opacity:1"
       d="m 53.192513,100.40373 c -1.890376,-7.793313 -0.702526,-16.290091 3.252616,-23.2662 3.955142,-6.97611 10.636162,-12.358506 18.294224,-14.738282 7.658062,-2.379776 16.21298,-1.732014 23.425402,1.773727 7.212425,3.50574 13.006825,9.832751 15.866465,17.324863 2.2652,5.934711 2.70913,12.395611 2.82488,18.746872 0.27021,14.82725 -1.27045,30.18123 -8.47461,43.1435 -4.03512,7.26029 -9.694776,13.48573 -15.665205,19.2605 -3.67183,3.5515 -7.544089,7.00393 -12.116843,9.28109 -4.572754,2.27715 -9.972174,3.28582 -14.847849,1.76158 -2.621645,-0.81958 -4.987564,-2.33184 -7.059922,-4.13463 -2.072358,-1.80279 -3.870117,-3.89656 -5.608219,-6.02347 -3.476205,-4.25381 -6.89525,-8.80236 -11.728488,-11.41364 -1.744614,-0.94257 -3.688737,-1.61452 -5.670772,-1.55405 -0.991018,0.0302 -1.981106,0.24642 -2.873692,0.67807 -0.892585,0.43165 -1.685055,1.08253 -2.241399,1.90321 -0.644968,0.95141 -0.954721,2.09444 -1.097711,3.23493 -0.142991,1.14049 -0.129584,2.29401 -0.186333,3.44203 -0.01269,0.2568 -0.02887,0.51493 0,0.77042 0.05171,0.45758 0.250428,0.89526 0.549565,1.24536 0.299136,0.35011 0.696373,0.6129 1.13076,0.76576 0.868773,0.30572 1.860416,0.16016 2.666457,-0.28541 0.806042,-0.44556 1.435767,-1.16862 1.876542,-1.97729 0.440774,-0.80867 0.703435,-1.70285 0.894372,-2.60383 0.381875,-1.80197 0.500696,-3.69555 1.315302,-5.34762 0.407302,-0.82604 0.994326,-1.57986 1.768108,-2.07935 0.773782,-0.4995 1.745243,-0.72494 2.639218,-0.50349 0.520579,0.12895 1.001433,0.40422 1.390688,0.77315 0.389256,0.36893 0.687767,0.82973 0.884857,1.32852 0.394181,0.99757 0.377213,2.12485 0.105824,3.16257 -0.542779,2.07545 -2.013444,3.75604 -3.155384,5.5721 -1.718586,2.73311 -2.733698,5.89435 -3.002758,9.11166 -0.269061,3.2173 0.202003,6.48629 1.297459,9.5233 2.190912,6.07402 6.862556,11.10678 12.497182,14.26032 6.797584,3.80441 14.92023,4.95218 22.63166,3.85012 7.711431,-1.10205 15.020351,-4.36592 21.414827,-8.81467 12.788954,-8.89749 21.759064,-22.15191 30.427414,-35.09728 2.99323,-4.47011 6.00057,-8.96598 8.21782,-13.86753 5.01831,-11.0937 5.71573,-23.58004 8.47462,-35.4393 1.96849,-8.461656 5.00827,-16.672322 6.46411,-25.237082 0.72791,-4.28238 1.05419,-8.654132 0.63375,-12.977541 -0.42045,-4.323409 -1.60455,-8.604638 -3.75938,-12.376286 -3.28367,-5.747477 -8.64862,-10.044279 -14.38118,-13.353928 -10.01051,-5.77949 -21.3924,-8.912484 -32.871241,-10.27226 -7.785831,-0.922304 -15.676023,-1.057526 -23.369399,-2.568077 -2.766206,-0.543129 -5.497919,-1.2626 -8.280669,-1.713366 -2.782749,-0.450767 -5.645742,-0.628467 -8.41174,-0.08428 -5.04102,0.991779 -9.393733,4.344685 -12.461172,8.466132 -3.06744,4.121447 -4.979373,8.981958 -6.542512,13.876047 -6.917725,21.658954 -7.548979,45.285871 -1.797648,67.283311"
       id="path10"
       inkscape:path-effect="#path-effect12"
       inkscape:original-d="m 53.192513,100.40373 c 5.933871,-17.163737 47.558767,-47.880317 60.838707,-18.905892 2.10087,4.583719 2.6856,15.613031 2.82488,18.746872 0.62562,14.07636 -1.24885,30.71517 -8.47461,43.1435 -4.06765,6.99637 -10.147835,13.43663 -15.665205,19.2605 -7.472505,7.88762 -15.497431,13.12764 -26.964692,11.04267 -11.408894,-2.07435 -14.474672,-16.99242 -24.396629,-21.57174 -3.562603,-1.64427 -8.08016,-2.58041 -10.785863,1.02723 -1.620941,2.16127 -1.284044,4.10274 -1.284044,6.67696 0,0.25681 -0.192347,0.94057 0,0.77042 6.206894,-5.4907 11.240635,-12.78275 12.840324,-10.78587 2.264106,2.82627 -0.890773,7.21691 -0.774015,10.83634 0.05586,1.73154 5.972397,30.96748 10.791883,32.89528 30.989183,12.39573 59.032581,-17.33688 74.473901,-40.06183 1.87813,-2.76403 6.75431,-9.53119 8.21782,-13.86753 4.09142,-12.12271 5.6427,-23.24029 8.47462,-35.4393 3.24931,-13.99706 10.4843,-36.299339 3.33848,-50.590909 -3.00462,-6.009211 -8.919,-9.890109 -14.38118,-13.353928 C 121.68736,33.517546 111.8705,31.36892 99.395649,29.954243 73.443014,27.011153 96.257741,30.231212 76.02625,27.386166 71.739778,26.783384 63.869334,24.328663 59.333841,25.58852 50.708528,27.984434 43.896327,42.012369 40.330157,47.930699 25.382127,72.738072 30.560758,91.299479 38.532509,115.21401" />
    <path
       style="fill:none;stroke:#000000;stroke-width:0.264583px;stroke-linecap:butt;stroke-linejoin:miter;stroke-opacity:1"
       d="M 99.787743,228.84732 125.16768,43.531856"
       id="path14"
       inkscape:path-effect="#path-effect16"
       inkscape:original-d="M 99.787743,228.84732 125.16768,43.531856" />
  </g>
</svg>
